# xmcd
#
# Track frame offsets: 
#        150
#        14285
#        32964
#        44457
#        65323
#        79198
#        102118
#        120524
#        138521
#        156967
#        171813
#
# Disc length: 2540 seconds
#
# Revision: 3
# Processed by: cddbd v1.5.2PL0 Copyright (c) Steve Scherf et al.
# Submitted via: ExactAudioCopyFreeDBPlugin 1.0
#
DISCID=8b09ea0b
DTITLE=The Cat Empire - Cinema
DYEAR=2010
DGENRE=Jazz
TTITLE0=Waiting
TTITLE1=Falling
TTITLE2=Feeling's Gone
TTITLE3=Only Light
TTITLE4=All Hell
TTITLE5=Shoulders
TTITLE6=The Heart Is A Cannibal
TTITLE7=Reasonably Fine
TTITLE8=Call Me Home
TTITLE9=On My Way
TTITLE10=Beyond All
EXTD=YEAR: 2010
EXTT0=
EXTT1=
EXTT2=
EXTT3=
EXTT4=
EXTT5=
EXTT6=
EXTT7=
EXTT8=
EXTT9=
EXTT10=
PLAYORDER=
